<svg xmlns="http://www.w3.org/2000/svg" version="1.1" xmlns:xlink="http://www.w3.org/1999/xlink" xmlns:svgjs="http://svgjs.dev/svgjs" width="1500" height="276" viewBox="0 0 1500 276"><g transform="matrix(1,0,0,1,-0.9090909090909918,0.6089947794258137)"><svg viewBox="0 0 396 73" data-background-color="#ffffff" preserveAspectRatio="xMidYMid meet" height="276" width="1500" xmlns="http://www.w3.org/2000/svg" xmlns:xlink="http://www.w3.org/1999/xlink"><g id="tight-bounds" transform="matrix(1,0,0,1,0.2400000000000091,-0.1610747061524762)"><svg viewBox="0 0 395.52 73.32214941230494" height="73.32214941230494" width="395.52"><g><svg viewBox="0 0 494.78145044296446 91.72340067712378" height="73.32214941230494" width="395.52"><g transform="matrix(1,0,0,1,99.2614504429645,22.504582773722625)"><svg viewBox="0 0 395.52 46.71423512967853" height="46.71423512967853" width="395.52"><g id="textblocktransform"><svg viewBox="0 0 395.52 46.71423512967853" height="46.71423512967853" width="395.52" id="textblock"><g><svg viewBox="0 0 395.52 46.71423512967853" height="46.71423512967853" width="395.52"><g transform="matrix(1,0,0,1,0,0)"><svg width="395.52" viewBox="4.58 -37.45 321.92 38.03" height="46.71423512967853" data-palette-color="#919591"><path d="M16.93-3.05L16.93-3.05Q18.9-3.05 20.61-3.7 22.33-4.35 23.78-5.35L23.78-5.35 25.83-2.6Q24.1-1.13 21.68-0.28 19.25 0.58 16.93 0.58L16.93 0.58Q13 0.58 10.24-1.11 7.48-2.8 6.03-5.86 4.58-8.93 4.58-13.05L4.58-13.05Q4.58-17 6.04-20.14 7.5-23.28 10.26-25.08 13.03-26.88 16.98-26.88L16.98-26.88Q19.5-26.88 21.71-26.11 23.93-25.35 25.78-23.83L25.78-23.83 23.73-21.03Q22.05-22.2 20.36-22.79 18.68-23.38 16.93-23.38L16.93-23.38Q13.53-23.38 11.33-20.83 9.13-18.28 9.13-13.05L9.13-13.05Q9.13-9.55 10.14-7.34 11.15-5.13 12.91-4.09 14.68-3.05 16.93-3.05ZM45.05-26.88L45.05-26.88Q48.77-26.88 51.28-25.19 53.8-23.5 55.06-20.43 56.32-17.35 56.32-13.18L56.32-13.18Q56.32-9.15 55.02-6.05 53.72-2.95 51.21-1.19 48.7 0.58 45 0.58L45 0.58Q41.3 0.58 38.77-1.13 36.25-2.83 34.96-5.91 33.67-9 33.67-13.13L33.67-13.13Q33.67-17.2 34.97-20.3 36.27-23.4 38.81-25.14 41.35-26.88 45.05-26.88ZM45.05-23.45L45.05-23.45Q41.65-23.45 39.91-20.94 38.17-18.43 38.17-13.13L38.17-13.13Q38.17-7.93 39.88-5.4 41.6-2.88 45-2.88L45-2.88Q48.4-2.88 50.11-5.4 51.82-7.93 51.82-13.18L51.82-13.18Q51.82-18.43 50.12-20.94 48.42-23.45 45.05-23.45ZM80.77-23.78L80.77-37.45 84.97-36.93 84.97 0 81.3 0 80.9-3.48Q79.42-1.38 77.51-0.4 75.59 0.58 73.42 0.58L73.42 0.58Q70 0.58 67.77-1.15 65.55-2.88 64.47-5.96 63.4-9.05 63.4-13.13L63.4-13.13Q63.4-17.07 64.62-20.19 65.84-23.3 68.16-25.09 70.47-26.88 73.72-26.88L73.72-26.88Q76-26.88 77.72-26.09 79.45-25.3 80.77-23.78L80.77-23.78ZM74.82-23.5L74.82-23.5Q71.52-23.5 69.75-20.93 67.97-18.35 67.97-13.13L67.97-13.13Q67.97-9.73 68.7-7.43 69.42-5.13 70.83-3.98 72.25-2.83 74.3-2.83L74.3-2.83Q76.55-2.83 78.13-4.1 79.72-5.38 80.77-6.98L80.77-6.98 80.77-20.13Q79.7-21.73 78.17-22.61 76.65-23.5 74.82-23.5ZM116.02-11.68L98.32-11.68Q98.44-8.63 99.49-6.69 100.54-4.75 102.27-3.84 103.99-2.93 106.02-2.93L106.02-2.93Q108.04-2.93 109.68-3.53 111.32-4.13 113.04-5.3L113.04-5.3 115.02-2.53Q113.17-1.07 110.81-0.25 108.44 0.58 105.97 0.58L105.97 0.58Q102.14 0.58 99.44-1.15 96.74-2.88 95.33-5.96 93.92-9.05 93.92-13.13L93.92-13.13Q93.92-17.13 95.34-20.23 96.77-23.33 99.34-25.1 101.92-26.88 105.42-26.88L105.42-26.88Q108.74-26.88 111.14-25.31 113.54-23.75 114.83-20.86 116.12-17.98 116.12-13.98L116.12-13.98Q116.12-13.3 116.09-12.71 116.07-12.13 116.02-11.68L116.02-11.68ZM105.47-23.43L105.47-23.43Q102.54-23.43 100.58-21.35 98.62-19.28 98.34-14.93L98.34-14.93 112.07-14.93Q111.99-19.15 110.22-21.29 108.44-23.43 105.47-23.43ZM168.91 0L155.26 0 155.26-3.23 159.36-3.23 159.36-23.1 155.26-23.1 155.26-26.33 162.56-26.33 163.34-20.1Q164.86-23.35 167.04-25.13 169.21-26.9 172.79-26.9L172.79-26.9Q173.89-26.9 174.75-26.74 175.61-26.58 176.51-26.33L176.51-26.33 175.29-22.58Q174.46-22.8 173.79-22.91 173.11-23.03 172.24-23.03L172.24-23.03Q169.21-23.03 167.04-20.88 164.86-18.73 163.56-14.38L163.56-14.38 163.56-3.23 168.91-3.23 168.91 0ZM175.91-17.43L172.46-17.43 172.46-23.15 172.89-26.33 176.51-26.33 175.91-17.43ZM185.01-26.33L189.21-26.33 189.21-7.68Q189.21-5.08 190.29-3.93 191.36-2.78 193.64-2.78L193.64-2.78Q195.81-2.78 197.75-4.01 199.69-5.25 200.76-6.95L200.76-6.95 200.76-26.33 204.96-26.33 204.96 0 201.39 0 201.04-3.55Q199.49-1.55 197.21-0.49 194.94 0.58 192.61 0.58L192.61 0.58Q188.79 0.58 186.9-1.46 185.01-3.5 185.01-7.18L185.01-7.18 185.01-26.33ZM219.21 0L215.01 0 215.01-26.33 218.58-26.33 218.91-22.68Q220.51-24.7 222.92-25.79 225.33-26.88 227.61-26.88L227.61-26.88Q231.48-26.88 233.25-24.83 235.01-22.78 235.01-19.13L235.01-19.13 235.01 0 230.81 0 230.81-16.03Q230.81-18.73 230.51-20.39 230.21-22.05 229.26-22.81 228.31-23.58 226.31-23.58L226.31-23.58Q224.76-23.58 223.4-22.9 222.03-22.23 220.97-21.21 219.91-20.2 219.21-19.18L219.21-19.18 219.21 0ZM249.21 0L245.01 0 245.01-26.33 248.58-26.33 248.91-22.68Q250.51-24.7 252.92-25.79 255.33-26.88 257.61-26.88L257.61-26.88Q261.48-26.88 263.24-24.83 265-22.78 265-19.13L265-19.13 265 0 260.81 0 260.81-16.03Q260.81-18.73 260.5-20.39 260.21-22.05 259.25-22.81 258.31-23.58 256.31-23.58L256.31-23.58Q254.76-23.58 253.39-22.9 252.03-22.23 250.97-21.21 249.91-20.2 249.21-19.18L249.21-19.18 249.21 0ZM296-11.68L278.3-11.68Q278.43-8.63 279.48-6.69 280.53-4.75 282.25-3.84 283.98-2.93 286-2.93L286-2.93Q288.03-2.93 289.67-3.53 291.3-4.13 293.03-5.3L293.03-5.3 295-2.53Q293.15-1.07 290.79-0.25 288.43 0.58 285.95 0.58L285.95 0.58Q282.13 0.58 279.43-1.15 276.73-2.88 275.31-5.96 273.9-9.05 273.9-13.13L273.9-13.13Q273.9-17.13 275.33-20.23 276.75-23.33 279.33-25.1 281.9-26.88 285.4-26.88L285.4-26.88Q288.73-26.88 291.13-25.31 293.53-23.75 294.81-20.86 296.1-17.98 296.1-13.98L296.1-13.98Q296.1-13.3 296.08-12.71 296.05-12.13 296-11.68L296-11.68ZM285.45-23.43L285.45-23.43Q282.53-23.43 280.56-21.35 278.6-19.28 278.33-14.93L278.33-14.93 292.05-14.93Q291.98-19.15 290.2-21.29 288.43-23.43 285.45-23.43ZM318.9 0L305.25 0 305.25-3.23 309.35-3.23 309.35-23.1 305.25-23.1 305.25-26.33 312.55-26.33 313.33-20.1Q314.85-23.35 317.03-25.13 319.2-26.9 322.78-26.9L322.78-26.9Q323.88-26.9 324.74-26.74 325.6-26.58 326.5-26.33L326.5-26.33 325.28-22.58Q324.45-22.8 323.78-22.91 323.1-23.03 322.23-23.03L322.23-23.03Q319.2-23.03 317.03-20.88 314.85-18.73 313.55-14.38L313.55-14.38 313.55-3.23 318.9-3.23 318.9 0ZM325.9-17.43L322.45-17.43 322.45-23.15 322.88-26.33 326.5-26.33 325.9-17.43Z" opacity="1" transform="matrix(1,0,0,1,0,0)" fill="#919591" class="wordmark-text-0" data-fill-palette-color="primary" id="text-0"></path></svg></g></svg></g></svg></g></svg></g><g><svg viewBox="0 0 88.2333406704905 91.72340067712378" height="91.72340067712378" width="88.2333406704905"><g><svg xmlns="http://www.w3.org/2000/svg" xmlns:xlink="http://www.w3.org/1999/xlink" version="1.1" x="0" y="0" viewBox="18.323 17.068999999999996 63.355 65.86100000000002" enable-background="new 0 0 100 100" xml:space="preserve" height="91.72340067712378" width="88.2333406704905" class="icon-icon-0" data-fill-palette-color="accent" id="icon-0"><g fill="#636365" data-fill-palette-color="accent"><path d="M41.086 21.513c0.172-0.39 0.271-0.819 0.271-1.273 0-1.748-1.422-3.17-3.17-3.17s-3.17 1.422-3.17 3.17 1.422 3.17 3.17 3.17c0.375 0 0.73-0.077 1.064-0.197l24.309 26.045-13.675 27.35c-0.06-0.003-0.117-0.018-0.178-0.018-1.748 0-3.17 1.422-3.17 3.17s1.422 3.17 3.17 3.17c1.748 0 3.17-1.422 3.17-3.17 0-0.777-0.292-1.479-0.757-2.031l14.064-28.13c0.233-0.467 0.152-1.03-0.204-1.412L41.086 21.513z" fill="#636365" data-fill-palette-color="accent"></path><path d="M58.506 49.599c0.24-0.481 0.146-1.062-0.234-1.442L31.527 21.412c0.146-0.363 0.23-0.757 0.23-1.172 0-1.748-1.422-3.17-3.17-3.17s-3.17 1.422-3.17 3.17 1.422 3.17 3.17 3.17c0.415 0 0.808-0.085 1.171-0.23l14.67 14.67c-0.029 0.024-0.065 0.034-0.092 0.061L31.114 51.134l-6.682-6.682c0.145-0.363 0.23-0.757 0.23-1.172 0-1.748-1.422-3.17-3.169-3.17-1.748 0-3.17 1.422-3.17 3.17 0 1.748 1.422 3.17 3.17 3.17 0.414 0 0.808-0.085 1.171-0.23l6.683 6.682-7.089 7.089c-0.088 0.088-0.142 0.193-0.198 0.297-0.287 0.229-0.482 0.566-0.482 0.962v6.018c-0.365 0.149-0.705 0.363-0.992 0.65-1.235 1.236-1.235 3.247 0 4.483 0.599 0.599 1.395 0.929 2.242 0.929s1.643-0.33 2.241-0.929c0.599-0.599 0.929-1.395 0.929-2.241s-0.33-1.643-0.929-2.242c-0.287-0.287-0.626-0.501-0.991-0.65v-5.562l22.028-22.028c0.027-0.027 0.037-0.063 0.061-0.092L48.9 42.32 27.704 63.516c-0.008 0.008-0.01 0.019-0.018 0.027-0.104 0.11-0.192 0.236-0.251 0.379-0.063 0.153-0.097 0.315-0.097 0.479v10.548c-0.365 0.149-0.705 0.363-0.992 0.65-1.236 1.235-1.236 3.247 0 4.483 0.599 0.599 1.395 0.928 2.242 0.928 0.847 0 1.643-0.329 2.241-0.928 1.236-1.236 1.236-3.247 0-4.483-0.287-0.287-0.626-0.501-0.991-0.65V64.917l20.83-20.83 5.199 5.199L42.206 76.608c-0.061-0.003-0.118-0.018-0.179-0.018-1.748 0-3.17 1.422-3.17 3.17s1.422 3.17 3.17 3.17c1.748 0 3.17-1.422 3.17-3.17 0-0.777-0.292-1.479-0.757-2.031L58.506 49.599z" fill="#636365" data-fill-palette-color="accent"></path><path d="M78.508 74.67c-0.257 0-0.503 0.039-0.742 0.097l-3.768-5.023V49.04c0-0.313-0.118-0.614-0.329-0.845l-8.208-8.954 6.114-6.114c0.363 0.146 0.757 0.231 1.172 0.231 1.748 0 3.169-1.422 3.169-3.17 0-1.748-1.422-3.17-3.169-3.17-1.748 0-3.17 1.422-3.17 3.17 0 0.415 0.085 0.808 0.23 1.171l-6.038 6.037-3.066-3.345 10.872-10.872c0.363 0.145 0.757 0.23 1.172 0.23 1.748 0 3.169-1.422 3.169-3.17s-1.422-3.17-3.169-3.17c-1.748 0-3.17 1.422-3.17 3.17 0 0.415 0.085 0.809 0.23 1.172L59.013 32.207l-6.135-6.693V23.15c1.127-0.486 1.92-1.607 1.92-2.911 0-1.748-1.422-3.17-3.17-3.17-1.748 0-3.17 1.422-3.17 3.17 0 1.304 0.792 2.425 1.92 2.911V26c0 0.061 0.026 0.114 0.035 0.172 0.014 0.095 0.021 0.189 0.057 0.279 0.033 0.086 0.088 0.156 0.139 0.231 0.035 0.053 0.053 0.114 0.098 0.162l20.792 22.682V70.16c0 0.271 0.087 0.534 0.25 0.75l4.021 5.362c-0.267 0.464-0.432 0.995-0.432 1.568 0 1.748 1.422 3.17 3.17 3.17 1.748 0 3.17-1.422 3.17-3.17S80.255 74.67 78.508 74.67z" fill="#636365" data-fill-palette-color="accent"></path></g></svg></g></svg></g></svg></g><defs></defs></svg><rect width="395.52" height="73.32214941230494" fill="none" stroke="none" visibility="hidden"></rect></g></svg></g></svg>